<svg width="120" height="120" viewBox="0 0 120 120" fill="none" xmlns="http://www.w3.org/2000/svg">
<rect y="25.4558" width="36" height="131" transform="rotate(-45 0 25.4558)" fill="#565BBB"/>
<mask id="path-2-inside-1" fill="white">
<path d="M98.071 112.213C98.9996 113.142 100.102 113.878 101.315 114.381C102.529 114.883 103.829 115.142 105.142 115.142C106.455 115.142 107.756 114.883 108.969 114.381C110.182 113.878 111.285 113.142 112.213 112.213C113.142 111.285 113.878 110.182 114.381 108.969C114.883 107.756 115.142 106.455 115.142 105.142C115.142 103.829 114.883 102.529 114.381 101.315C113.878 100.102 113.142 98.9996 112.213 98.0711L105.142 105.142L98.071 112.213Z"/>
</mask>
<path d="M98.071 112.213C98.9996 113.142 100.102 113.878 101.315 114.381C102.529 114.883 103.829 115.142 105.142 115.142C106.455 115.142 107.756 114.883 108.969 114.381C110.182 113.878 111.285 113.142 112.213 112.213C113.142 111.285 113.878 110.182 114.381 108.969C114.883 107.756 115.142 106.455 115.142 105.142C115.142 103.829 114.883 102.529 114.381 101.315C113.878 100.102 113.142 98.9996 112.213 98.0711L105.142 105.142L98.071 112.213Z" fill="#C2BC81" stroke="black" stroke-width="2" mask="url(#path-2-inside-1)"/>
</svg>
